<mxfile host="65bd71144e" modified="2020-11-03T08:27:40.838Z" agent="5.0 (Windows NT 10.0; Win64; x64) AppleWebKit/537.36 (KHTML, like Gecko) Code/1.50.1 Chrome/83.0.4103.122 Electron/9.2.1 Safari/537.36" etag="Fv8EuqzbcZXwok24Djnp" version="13.6.5">
    <diagram id="qc47GgD-49uNKkNRnJAU" name="Page-1">
        <mxGraphModel dx="1174" dy="603" grid="1" gridSize="10" guides="0" tooltips="1" connect="1" arrows="1" fold="1" page="1" pageScale="1" pageWidth="1169" pageHeight="827" math="0" shadow="0">
            <root>
                <mxCell id="0"/>
                <mxCell id="1" parent="0"/>
                <mxCell id="By01Bm9PqwNirrZu6D-P-3" value="" style="strokeWidth=1;shadow=0;dashed=0;align=center;html=1;shape=mxgraph.mockup.containers.browserWindow;rSize=0;strokeColor=#666666;strokeColor2=#008cff;strokeColor3=#c4c4c4;mainText=,;recursiveResize=0;fontColor=#FFFFFF;" parent="1" vertex="1">
                    <mxGeometry x="5" y="4" width="1160" height="806" as="geometry"/>
                </mxCell>
                <mxCell id="By01Bm9PqwNirrZu6D-P-4" value="Page 1" style="strokeWidth=1;shadow=0;dashed=0;align=center;html=1;shape=mxgraph.mockup.containers.anchor;fontSize=17;fontColor=#666666;align=left;" parent="By01Bm9PqwNirrZu6D-P-3" vertex="1">
                    <mxGeometry x="60" y="12" width="110" height="26" as="geometry"/>
                </mxCell>
                <mxCell id="By01Bm9PqwNirrZu6D-P-5" value="https://www.draw.io" style="strokeWidth=1;shadow=0;dashed=0;align=center;html=1;shape=mxgraph.mockup.containers.anchor;rSize=0;fontSize=17;fontColor=#666666;align=left;" parent="By01Bm9PqwNirrZu6D-P-3" vertex="1">
                    <mxGeometry x="130" y="60" width="250" height="26" as="geometry"/>
                </mxCell>
                <mxCell id="By01Bm9PqwNirrZu6D-P-6" value="--" style="verticalLabelPosition=bottom;verticalAlign=top;html=1;shape=mxgraph.basic.patternFillRect;fillStyle=diag;step=5;fillStrokeWidth=0.2;fillStrokeColor=#dddddd;" parent="By01Bm9PqwNirrZu6D-P-3" vertex="1">
                    <mxGeometry y="113" width="1160" height="687" as="geometry"/>
                </mxCell>
                <mxCell id="By01Bm9PqwNirrZu6D-P-7" value="" style="whiteSpace=wrap;html=1;fillColor=#000000;opacity=80;" parent="By01Bm9PqwNirrZu6D-P-3" vertex="1">
                    <mxGeometry x="402.25" y="260" width="355.5" height="425.27" as="geometry"/>
                </mxCell>
                <mxCell id="By01Bm9PqwNirrZu6D-P-10" value="&lt;font style=&quot;font-size: 36px&quot; color=&quot;#ffffff&quot;&gt;LOGIN&lt;/font&gt;" style="text;html=1;strokeColor=none;fillColor=none;align=center;verticalAlign=middle;whiteSpace=wrap;rounded=0;" parent="By01Bm9PqwNirrZu6D-P-3" vertex="1">
                    <mxGeometry x="520" y="296" width="120" height="20" as="geometry"/>
                </mxCell>
                <mxCell id="By01Bm9PqwNirrZu6D-P-12" value="" style="shape=ext;double=1;rounded=1;whiteSpace=wrap;html=1;" parent="By01Bm9PqwNirrZu6D-P-3" vertex="1">
                    <mxGeometry x="449" y="355" width="261" height="40" as="geometry"/>
                </mxCell>
                <mxCell id="By01Bm9PqwNirrZu6D-P-13" value="" style="shape=ext;double=1;rounded=1;whiteSpace=wrap;html=1;" parent="By01Bm9PqwNirrZu6D-P-3" vertex="1">
                    <mxGeometry x="449.5" y="415" width="261" height="40" as="geometry"/>
                </mxCell>
                <mxCell id="By01Bm9PqwNirrZu6D-P-14" value="Email" style="text;html=1;strokeColor=none;fillColor=none;align=center;verticalAlign=middle;whiteSpace=wrap;rounded=0;" parent="By01Bm9PqwNirrZu6D-P-3" vertex="1">
                    <mxGeometry x="465" y="365" width="235" height="20" as="geometry"/>
                </mxCell>
                <mxCell id="By01Bm9PqwNirrZu6D-P-15" value="Password" style="text;html=1;strokeColor=none;fillColor=none;align=center;verticalAlign=middle;whiteSpace=wrap;rounded=0;" parent="By01Bm9PqwNirrZu6D-P-3" vertex="1">
                    <mxGeometry x="462" y="425" width="188" height="20" as="geometry"/>
                </mxCell>
                <mxCell id="By01Bm9PqwNirrZu6D-P-17" style="edgeStyle=none;shape=link;rounded=0;orthogonalLoop=1;jettySize=auto;html=1;exitX=0.75;exitY=0;exitDx=0;exitDy=0;entryX=0.75;entryY=1;entryDx=0;entryDy=0;strokeColor=none;" parent="By01Bm9PqwNirrZu6D-P-3" source="By01Bm9PqwNirrZu6D-P-13" target="By01Bm9PqwNirrZu6D-P-13" edge="1">
                    <mxGeometry relative="1" as="geometry"/>
                </mxCell>
                <mxCell id="By01Bm9PqwNirrZu6D-P-27" value="" style="shape=ext;double=1;rounded=1;whiteSpace=wrap;html=1;" parent="By01Bm9PqwNirrZu6D-P-3" vertex="1">
                    <mxGeometry x="650" y="415" width="60.5" height="40" as="geometry"/>
                </mxCell>
                <mxCell id="By01Bm9PqwNirrZu6D-P-28" value="" style="shape=image;html=1;verticalAlign=top;verticalLabelPosition=bottom;labelBackgroundColor=#ffffff;imageAspect=0;aspect=fixed;image=https://cdn4.iconfinder.com/data/icons/pictype-free-vector-icons/16/view-128.png" parent="By01Bm9PqwNirrZu6D-P-3" vertex="1">
                    <mxGeometry x="666.25" y="421" width="28" height="28" as="geometry"/>
                </mxCell>
                <mxCell id="By01Bm9PqwNirrZu6D-P-30" value="LOGIN" style="rounded=1;html=1;shadow=0;dashed=0;whiteSpace=wrap;fontSize=10;fillColor=#e51400;align=center;strokeColor=#B20000;aspect=fixed;fontColor=#ffffff;" parent="By01Bm9PqwNirrZu6D-P-3" vertex="1">
                    <mxGeometry x="508.5" y="496" width="143" height="22.88" as="geometry"/>
                </mxCell>
                <mxCell id="By01Bm9PqwNirrZu6D-P-33" value="Remember me" style="text;html=1;align=center;verticalAlign=middle;whiteSpace=wrap;rounded=0;fontColor=#FFFFFF;" parent="By01Bm9PqwNirrZu6D-P-3" vertex="1">
                    <mxGeometry x="460" y="461.63" width="95" height="20" as="geometry"/>
                </mxCell>
                <mxCell id="By01Bm9PqwNirrZu6D-P-35" value="Don't have an account yet? &lt;font color=&quot;#ff0000&quot;&gt;Sign up&lt;/font&gt;" style="text;html=1;strokeColor=none;fillColor=none;align=center;verticalAlign=middle;whiteSpace=wrap;rounded=0;labelBackgroundColor=none;fontColor=#FFFFFF;" parent="By01Bm9PqwNirrZu6D-P-3" vertex="1">
                    <mxGeometry x="467.25" y="546" width="230.5" height="20" as="geometry"/>
                </mxCell>
                <mxCell id="By01Bm9PqwNirrZu6D-P-38" value="" style="ellipse;whiteSpace=wrap;html=1;aspect=fixed;" parent="By01Bm9PqwNirrZu6D-P-3" vertex="1">
                    <mxGeometry x="446.63" y="463.45" width="18.37" height="18.37" as="geometry"/>
                </mxCell>
                <mxCell id="By01Bm9PqwNirrZu6D-P-39" value="X" style="text;html=1;strokeColor=none;fillColor=none;align=center;verticalAlign=middle;whiteSpace=wrap;rounded=0;" parent="By01Bm9PqwNirrZu6D-P-3" vertex="1">
                    <mxGeometry x="448" y="461.63" width="15" height="20" as="geometry"/>
                </mxCell>
                <mxCell id="By01Bm9PqwNirrZu6D-P-41" value="&lt;span style=&quot;font-size: 20px&quot;&gt;Carousel of automatically changing background images&lt;/span&gt;" style="text;html=1;strokeColor=none;fillColor=none;align=center;verticalAlign=middle;whiteSpace=wrap;rounded=0;labelBackgroundColor=none;" parent="By01Bm9PqwNirrZu6D-P-3" vertex="1">
                    <mxGeometry x="430" y="156" width="305" height="84" as="geometry"/>
                </mxCell>
            </root>
        </mxGraphModel>
    </diagram>
</mxfile>